<?xml version="1.0" standalone="no"?>
<!DOCTYPE svg PUBLIC "-//W3C//DTD SVG 20010904//EN"
 "http://www.w3.org/TR/2001/REC-SVG-20010904/DTD/svg10.dtd">
<svg version="1.0" xmlns="http://www.w3.org/2000/svg"
 width="2826.000000pt" height="2826.000000pt" viewBox="0 0 2826.000000 2826.000000"
 preserveAspectRatio="xMidYMid meet">
<metadata>
Created by potrace 1.14, written by Peter Selinger 2001-2017
</metadata>
<g transform="translate(0.000000,2826.000000) scale(0.100000,-0.100000)"
fill="#000000" stroke="none">
<path d="M13706 24002 c-3 -2 -18 -6 -33 -8 -35 -5 -68 -12 -68 -14 0 -1 -13
-4 -30 -5 -38 -4 -96 -15 -105 -20 -7 -4 -45 -12 -95 -20 -45 -7 -57 -11 -90
-24 -16 -7 -37 -10 -46 -8 -9 2 -23 0 -32 -4 -9 -5 -44 -11 -79 -14 -35 -3
-83 -7 -108 -11 -25 -3 -70 -7 -100 -9 -59 -3 -88 -11 -165 -45 -27 -11 -57
-19 -67 -17 -10 3 -21 0 -26 -6 -10 -17 -102 -58 -113 -52 -5 4 -9 1 -9 -6 0
-7 -3 -10 -6 -6 -7 7 -77 -28 -120 -60 -17 -13 -34 -20 -37 -16 -4 3 -7 1 -7
-6 0 -7 -4 -10 -9 -6 -5 3 -12 1 -16 -5 -4 -6 -10 -8 -14 -5 -5 2 -16 -4 -26
-15 -18 -20 -88 -60 -106 -60 -6 0 -29 -15 -52 -34 -23 -18 -60 -42 -82 -52
-39 -18 -50 -27 -118 -86 -17 -16 -37 -28 -44 -28 -7 0 -13 -4 -13 -10 0 -5
-8 -10 -17 -10 -9 0 -14 -3 -11 -6 4 -3 -6 -18 -21 -32 -14 -15 -39 -43 -54
-64 -14 -20 -52 -60 -83 -90 -31 -29 -77 -74 -102 -100 -26 -27 -51 -48 -57
-48 -5 -1 -23 -17 -40 -37 -43 -51 -107 -113 -117 -113 -4 0 -8 -5 -8 -10 0
-13 -61 -69 -75 -70 -5 0 -19 -13 -30 -29 -11 -17 -21 -28 -23 -26 -4 4 -33
-20 -97 -81 -45 -44 -64 -54 -107 -60 -40 -5 -117 -47 -160 -87 -21 -19 -38
-38 -38 -42 0 -4 -8 -19 -18 -33 -10 -15 -24 -46 -32 -69 -7 -24 -17 -43 -22
-43 -5 0 -6 -4 -3 -10 3 -5 1 -10 -4 -10 -6 0 -11 -5 -11 -11 0 -6 -12 -26
-26 -45 -15 -19 -23 -34 -18 -34 4 0 -1 -10 -12 -22 -28 -32 -74 -105 -74
-118 0 -5 -4 -10 -9 -10 -5 0 -13 -10 -17 -22 -3 -12 -10 -26 -15 -32 -19 -22
-59 -87 -59 -95 0 -4 -8 -16 -18 -27 -10 -10 -21 -26 -25 -34 -4 -8 -13 -24
-20 -35 -7 -12 -39 -66 -71 -120 -32 -55 -68 -112 -78 -128 -10 -15 -16 -32
-13 -37 3 -6 2 -10 -3 -10 -5 0 -15 -12 -23 -27 -8 -16 -16 -30 -19 -33 -3 -3
-17 -30 -33 -60 -15 -30 -43 -83 -62 -118 -19 -35 -35 -70 -35 -77 0 -7 -4
-15 -8 -17 -4 -1 -18 -27 -31 -57 -13 -30 -29 -61 -37 -68 -8 -8 -14 -22 -14
-32 0 -10 -3 -21 -7 -25 -5 -4 -8 -11 -8 -14 -1 -4 -8 -21 -18 -38 -9 -17 -14
-34 -11 -36 2 -3 -2 -11 -11 -18 -8 -7 -15 -19 -15 -27 0 -8 -6 -27 -14 -41
-24 -46 -67 -144 -92 -212 -13 -36 -29 -74 -35 -85 -5 -12 -11 -27 -13 -35 -2
-8 -10 -32 -20 -52 -9 -21 -16 -43 -16 -51 0 -7 -4 -17 -9 -22 -6 -6 -12 -23
-15 -40 -2 -16 -5 -31 -6 -32 -2 -2 -3 -6 -4 -10 -1 -5 -9 -24 -17 -43 -9 -19
-28 -75 -43 -125 -15 -49 -32 -103 -38 -118 -6 -15 -8 -30 -4 -34 3 -3 1 -11
-4 -18 -5 -6 -11 -20 -13 -31 -2 -10 -7 -28 -11 -39 -20 -52 -36 -109 -51
-170 -1 -5 -7 -23 -13 -38 -7 -16 -12 -35 -12 -42 0 -8 -4 -24 -9 -37 -5 -13
-17 -52 -26 -88 -10 -36 -28 -99 -41 -141 -14 -41 -26 -86 -29 -98 -2 -12 -6
-30 -9 -39 -3 -9 -7 -28 -10 -42 -3 -14 -10 -41 -16 -60 -7 -19 -18 -60 -25
-90 -12 -50 -43 -171 -44 -177 -1 -2 -2 -5 -2 -8 -1 -3 -2 -8 -3 -12 -17 -67
-30 -132 -29 -145 0 -10 -3 -18 -6 -18 -4 0 -7 -8 -8 -17 -1 -10 -9 -52 -18
-93 -9 -41 -18 -82 -19 -90 -15 -76 -20 -96 -22 -105 -3 -9 -8 -33 -18 -95 -3
-14 -5 -25 -6 -25 -2 0 -6 -22 -14 -70 -4 -22 -8 -47 -11 -55 -2 -8 -6 -37
-10 -64 -3 -28 -13 -82 -21 -120 -8 -39 -17 -87 -20 -106 -13 -84 -16 -96 -28
-109 -15 -14 -69 -15 -391 -5 -93 2 -249 6 -345 8 -202 5 -800 18 -815 18 -33
2 -160 -14 -174 -21 -9 -4 -47 -16 -86 -26 -38 -10 -96 -31 -127 -47 -32 -15
-58 -26 -58 -23 0 7 -105 -50 -165 -90 -27 -18 -72 -54 -99 -79 -26 -25 -50
-46 -51 -46 -8 0 -69 -66 -67 -72 1 -5 -2 -8 -7 -8 -10 0 -151 -172 -169 -207
-7 -12 -18 -28 -24 -35 -22 -24 -74 -113 -78 -133 -1 -5 -7 -17 -14 -25 -18
-21 -97 -236 -99 -271 -1 -16 -5 -29 -8 -29 -4 0 -10 -19 -14 -42 -4 -24 -9
-47 -10 -53 -2 -5 -5 -21 -8 -35 -3 -14 -8 -36 -11 -50 -5 -24 -15 -109 -21
-180 -2 -19 -6 -64 -10 -100 -7 -75 -12 -190 -20 -415 -2 -88 -7 -189 -10
-225 -3 -36 -7 -130 -10 -210 -2 -80 -7 -176 -11 -215 -3 -38 -7 -101 -9 -140
-1 -38 -3 -70 -5 -70 -1 0 -3 -36 -5 -80 -2 -44 -6 -107 -9 -140 -3 -33 -9
-132 -11 -220 -3 -88 -8 -178 -11 -200 -6 -45 -10 -113 -19 -325 -3 -80 -8
-174 -11 -210 -2 -36 -7 -126 -9 -200 -2 -74 -7 -211 -10 -305 -20 -570 -20
-1684 -1 -1875 3 -30 8 -170 11 -310 4 -140 8 -282 10 -315 4 -82 15 -256 20
-340 2 -38 7 -83 9 -100 3 -16 7 -75 10 -130 2 -55 7 -113 10 -130 3 -16 8
-59 11 -95 4 -58 11 -105 15 -105 2 0 9 -55 14 -110 4 -47 8 -66 22 -132 3
-16 7 -41 9 -56 2 -15 6 -40 10 -55 5 -15 9 -34 11 -42 1 -8 5 -28 9 -45 4
-16 8 -37 10 -45 2 -8 4 -15 5 -15 1 0 3 -11 6 -25 4 -28 15 -68 40 -155 10
-33 19 -62 19 -65 8 -36 40 -130 49 -145 7 -11 16 -33 20 -50 4 -16 16 -48 27
-72 10 -23 19 -47 19 -52 0 -14 71 -150 81 -157 5 -3 9 -12 9 -20 0 -15 89
-157 102 -162 5 -2 8 -10 8 -17 0 -8 6 -18 13 -22 6 -4 24 -26 39 -48 15 -22
38 -51 50 -65 13 -14 35 -40 51 -58 15 -19 27 -31 27 -27 0 3 11 -4 24 -17 13
-13 38 -34 55 -48 18 -14 43 -34 56 -45 13 -11 33 -27 45 -35 12 -8 33 -23 45
-32 13 -10 27 -18 32 -18 5 0 24 -11 43 -25 19 -14 42 -25 52 -25 10 0 18 -4
18 -9 0 -5 10 -12 23 -16 12 -4 24 -8 27 -9 3 -1 16 -5 30 -10 14 -4 34 -11
45 -16 40 -17 60 -24 70 -25 6 0 15 -3 20 -6 20 -12 74 -25 128 -30 15 -2 27
-6 27 -9 0 -3 8 -6 18 -6 9 -1 37 -4 62 -8 97 -14 181 -19 315 -19 128 0 420
9 420 13 0 2 86 8 200 14 44 2 80 5 80 6 0 4 75 9 220 15 88 4 186 8 218 10
32 2 57 -1 57 -7 0 -5 5 -6 10 -3 6 4 10 -8 11 -27 1 -18 3 -58 5 -88 6 -98
13 -232 19 -390 3 -85 7 -207 10 -270 2 -63 7 -155 10 -205 3 -49 7 -139 10
-200 2 -60 7 -145 10 -189 4 -43 8 -209 11 -370 7 -494 14 -788 19 -856 3 -36
6 -87 8 -115 1 -27 5 -54 8 -60 3 -5 4 -41 2 -80 -9 -148 -8 -211 1 -237 6
-16 13 -28 16 -28 3 0 7 -18 9 -41 1 -22 6 -48 10 -57 5 -10 17 -34 27 -55 25
-51 111 -127 143 -127 10 0 30 -11 45 -25 15 -14 29 -25 32 -25 3 0 22 -11 42
-25 20 -14 45 -25 54 -25 10 0 18 -4 18 -10 0 -5 9 -10 20 -10 11 0 20 -3 20
-7 0 -11 58 -43 76 -43 8 0 14 -3 14 -7 0 -8 50 -40 60 -39 3 1 19 -9 37 -22
17 -12 38 -22 47 -22 9 0 16 -4 16 -10 0 -5 6 -10 13 -10 6 0 57 -22 112 -50
55 -27 108 -50 118 -50 9 0 17 -4 17 -10 0 -5 7 -10 15 -10 8 0 29 -6 47 -14
18 -8 53 -20 78 -26 25 -7 64 -21 86 -32 23 -10 46 -18 50 -17 5 1 16 -1 24
-4 8 -4 26 -8 40 -10 24 -4 41 -9 88 -28 13 -5 38 -9 56 -9 18 0 36 -3 40 -7
4 -4 21 -8 39 -9 18 0 39 -3 47 -6 53 -19 92 -26 142 -27 32 -1 68 -5 80 -8
13 -3 104 -8 203 -10 99 -1 185 -3 190 -3 6 -1 44 0 85 0 41 1 109 1 150 0
153 -1 406 7 430 13 31 8 100 18 120 17 45 -3 78 -2 100 4 90 21 86 21 263 32
48 3 87 10 87 14 0 10 37 22 80 25 19 1 46 6 60 10 14 5 27 10 30 10 3 1 23 7
45 14 22 7 54 15 70 18 17 2 35 9 42 15 6 5 18 8 25 6 13 -3 33 5 110 43 10 5
25 9 33 9 9 0 42 12 73 26 31 14 73 33 92 41 19 9 43 22 53 31 9 8 17 12 17 8
0 -3 31 9 68 29 38 19 73 35 79 35 5 0 18 9 28 20 10 11 26 20 37 20 10 0 18
5 18 12 0 6 3 8 6 5 4 -4 19 2 33 12 14 9 42 25 61 35 47 22 69 37 99 64 14
12 31 22 38 22 7 0 13 7 13 16 0 8 3 13 8 11 4 -2 17 6 30 19 12 13 19 24 15
24 -4 0 -1 6 7 13 17 14 43 65 44 87 1 8 6 22 11 30 12 19 14 48 19 228 2 80
0 142 -5 142 -13 0 -11 23 6 56 16 32 17 55 10 153 -2 36 0 70 4 75 4 6 8 27
7 46 -1 19 2 37 6 40 3 3 8 93 9 200 2 107 6 206 10 220 7 23 11 73 23 315 2
44 7 136 11 205 4 69 8 206 10 305 1 99 5 198 9 220 6 38 10 82 21 300 2 50 7
126 10 170 3 44 8 143 10 219 3 77 9 144 14 149 9 9 77 5 121 -8 14 -4 51 -9
83 -12 31 -3 57 -9 57 -13 0 -4 21 -8 48 -9 48 -2 57 -3 102 -14 76 -19 175
-25 495 -32 121 -3 235 -8 252 -11 37 -6 43 -20 48 -111 2 -32 6 -92 9 -133 4
-41 9 -131 11 -200 3 -69 7 -145 10 -170 2 -25 6 -135 10 -245 3 -110 8 -225
10 -255 2 -30 6 -95 10 -145 3 -49 7 -147 9 -217 2 -86 7 -132 16 -143 9 -10
14 -56 16 -133 10 -322 17 -458 24 -467 4 -5 6 -50 4 -100 -2 -49 -4 -94 -4
-100 1 -5 3 -91 5 -190 5 -263 10 -297 54 -383 25 -48 85 -112 106 -112 8 0
15 -4 15 -10 0 -5 9 -10 19 -10 11 0 22 -4 26 -9 9 -16 66 -41 91 -41 13 0 25
-4 28 -9 5 -7 64 -17 143 -23 12 -1 19 -6 17 -10 -5 -8 30 -12 74 -8 12 1 22
-3 22 -9 0 -7 22 -11 55 -11 29 0 80 -7 112 -16 32 -9 92 -18 133 -19 41 -2
100 -6 130 -10 58 -7 692 -8 845 -1 253 11 375 22 375 35 0 4 32 8 72 10 40 1
76 5 81 8 5 3 34 9 65 13 32 4 68 11 82 15 14 4 46 9 73 12 26 3 50 10 53 14
3 5 22 9 43 9 21 0 41 3 45 7 3 4 12 8 19 10 7 1 30 7 52 13 22 7 52 14 68 17
15 3 27 9 27 14 0 5 9 9 20 9 11 0 20 4 20 10 0 5 3 9 8 8 10 -2 66 14 72 21
3 3 23 15 45 26 49 24 127 75 137 89 4 6 8 8 8 3 0 -6 97 57 110 72 3 3 30 19
60 35 64 33 141 108 166 163 10 21 21 40 24 43 4 3 19 31 33 62 15 31 36 59
46 63 19 6 58 55 44 55 -4 0 2 7 13 15 10 8 15 15 9 15 -6 0 -6 3 1 8 13 9
117 226 112 235 -1 1 4 11 10 23 6 11 13 32 15 45 3 13 16 49 30 79 28 63 42
102 39 112 -1 5 2 8 6 8 5 0 9 6 9 13 0 6 10 45 22 86 13 41 25 82 27 92 2 11
6 27 9 37 27 104 47 180 50 192 2 8 4 15 5 15 1 0 4 14 6 30 3 17 11 51 19 77
8 27 12 48 9 48 -3 0 -1 8 5 17 5 10 12 38 15 63 3 25 8 55 10 67 3 12 8 53
11 90 4 37 10 72 13 77 2 5 7 61 9 125 8 232 11 297 16 331 8 50 19 156 23
220 4 60 11 145 19 230 3 30 7 75 10 100 2 25 7 74 10 110 3 36 8 90 10 120 7
97 17 224 21 260 1 19 6 73 10 120 7 95 10 125 13 125 2 0 4 25 6 55 12 178
23 304 31 370 15 109 26 222 29 295 6 108 15 239 21 285 7 50 8 70 19 250 4
69 8 148 10 175 2 28 4 50 5 50 1 0 3 52 5 115 2 63 7 140 11 170 3 30 8 89
10 130 5 101 14 261 19 340 2 36 7 139 10 230 6 171 12 281 19 385 8 100 17
311 21 470 2 83 7 227 10 320 3 94 8 258 10 365 3 107 7 249 10 315 5 153 5
771 0 935 -2 69 -4 134 -4 145 1 106 -10 734 -16 945 -7 249 -13 333 -29 415
-5 28 16 64 66 111 64 61 128 131 122 136 -2 3 8 16 23 30 38 34 73 76 73 87
0 5 4 11 8 13 5 2 46 53 91 113 45 61 88 118 97 128 8 10 12 23 8 29 -4 6 -3
8 3 5 6 -4 18 8 27 27 8 18 22 39 30 45 8 7 17 24 21 39 4 15 10 29 14 32 16
11 174 316 225 433 9 20 23 52 31 71 8 19 15 40 15 48 0 8 4 18 9 24 9 8 18
39 25 84 1 8 5 24 9 35 14 43 35 155 29 155 -2 0 0 6 6 13 6 7 11 22 11 32 -1
11 3 52 7 90 9 87 9 356 -1 490 -4 55 -7 107 -7 115 0 8 -4 42 -9 75 -5 33
-10 74 -13 92 -2 17 -6 36 -9 40 -3 5 -8 40 -12 78 -3 38 -8 72 -10 76 -3 3
-7 24 -11 45 -8 58 -12 76 -23 113 -6 19 -9 37 -6 39 2 3 0 12 -4 21 -5 9 -11
30 -14 46 -10 51 -15 67 -47 155 -18 47 -34 93 -37 103 -3 9 -10 17 -15 17 -5
0 -6 4 -3 10 3 5 -1 20 -9 32 -8 13 -20 42 -27 66 -7 23 -16 42 -21 42 -4 0
-8 9 -8 20 0 11 -4 20 -9 20 -5 0 -11 10 -15 23 -5 20 -62 115 -76 127 -4 3
-15 21 -26 40 -10 19 -21 37 -24 40 -3 3 -19 25 -35 50 -17 24 -35 51 -42 60
-7 8 -33 44 -60 80 -26 36 -58 76 -70 90 -13 14 -23 28 -23 32 0 5 -8 16 -17
26 -10 10 -34 38 -55 63 -20 24 -44 54 -55 65 -10 12 -29 35 -42 52 -13 18
-28 29 -32 26 -5 -3 -9 0 -9 6 0 20 -186 194 -227 213 -13 6 -23 15 -23 21 -1
14 -186 135 -281 183 -41 21 -75 41 -77 46 -2 4 -10 7 -18 7 -8 0 -22 4 -32 9
-24 13 -75 34 -162 66 -72 27 -134 70 -125 85 3 4 -1 13 -8 19 -8 6 -20 30
-27 53 -8 24 -20 52 -27 64 -7 11 -10 24 -6 27 3 4 1 7 -6 7 -7 0 -10 4 -7 8
3 5 -15 49 -39 98 -25 49 -50 105 -56 124 -6 19 -16 41 -22 49 -6 7 -12 20
-13 29 -2 8 -7 18 -12 21 -4 3 -19 26 -31 51 -32 63 -54 101 -71 122 -8 10
-15 22 -14 26 0 4 -8 16 -18 26 -10 11 -18 28 -18 37 0 10 -3 19 -7 21 -9 4
-63 74 -63 82 0 10 -94 141 -115 161 -12 11 -35 40 -51 65 -16 25 -37 52 -46
61 -10 9 -18 21 -18 27 0 6 -6 15 -13 19 -6 4 -32 35 -57 68 -25 32 -52 67
-60 76 -8 9 -31 35 -50 59 -19 23 -46 55 -60 70 -14 16 -38 45 -55 65 -16 20
-51 59 -77 86 -25 27 -44 49 -42 49 21 0 -305 306 -411 385 -22 17 -50 40 -63
53 -13 12 -27 22 -32 22 -14 0 -90 80 -90 94 0 7 -19 30 -42 52 -22 21 -67 64
-99 94 -70 67 -89 82 -89 75 0 -6 -52 38 -81 69 -11 11 -19 16 -19 12 0 -4
-10 2 -22 14 -12 11 -28 20 -35 20 -7 0 -13 5 -13 10 0 6 -4 10 -10 10 -5 0
-19 8 -29 18 -40 36 -84 62 -104 62 -19 0 -48 27 -79 72 -13 21 -27 35 -30 32
-4 -3 -9 4 -13 15 -3 12 -13 21 -21 21 -8 0 -14 5 -14 12 0 6 -3 9 -6 5 -6 -5
-57 39 -171 150 -29 28 -53 49 -53 47 0 -6 -37 25 -93 79 -28 26 -55 47 -59
47 -5 0 -26 16 -48 36 -21 19 -51 45 -67 57 -16 12 -46 39 -66 59 -20 20 -58
49 -84 64 -27 16 -55 36 -64 46 -9 10 -19 15 -23 11 -3 -3 -6 -1 -6 4 0 6 -27
24 -60 40 -33 15 -60 31 -60 35 0 5 -7 8 -15 8 -7 0 -18 8 -24 18 -5 9 -11 16
-13 14 -3 -4 -32 5 -63 19 -11 5 -32 13 -47 19 -16 5 -28 14 -28 20 0 6 -4 9
-9 5 -5 -3 -15 0 -23 7 -7 7 -17 13 -23 13 -15 0 -89 27 -95 34 -9 11 -80 41
-96 41 -9 0 -27 9 -41 20 -14 11 -34 20 -44 20 -10 0 -21 5 -24 10 -4 6 -10 8
-14 5 -5 -2 -28 8 -52 23 -24 16 -65 35 -91 42 -27 8 -48 18 -48 22 0 4 -7 8
-15 8 -8 0 -15 5 -15 12 0 6 -3 8 -7 5 -3 -4 -17 0 -31 9 -13 9 -36 17 -51 18
-15 1 -45 11 -67 23 -22 11 -55 24 -74 28 -49 9 -100 28 -100 35 0 4 -6 7 -12
8 -15 1 -52 10 -55 12 -2 2 -6 3 -10 4 -5 1 -28 12 -53 23 -65 30 -93 36 -205
39 -55 2 -110 5 -122 8 -13 3 -25 1 -28 -4 -3 -4 -20 -5 -37 -1 -18 4 -60 7
-93 7 -33 -1 -62 2 -65 6 -10 13 -129 17 -134 4 -2 -6 -5 -6 -5 -1 -1 6 -17
10 -36 9 -19 -1 -35 1 -35 5 0 3 -17 5 -37 3 -85 -7 -110 -7 -145 -1 -21 3
-40 4 -42 1z m404 -613 c420 -21 357 -10 617 -110 127 -49 234 -89 236 -89 3
0 80 -36 171 -79 91 -44 232 -105 313 -136 234 -90 286 -123 543 -350 164
-145 268 -230 359 -294 41 -28 86 -69 100 -89 59 -87 106 -132 167 -161 82
-38 186 -110 178 -122 -3 -5 10 -27 30 -49 19 -21 44 -57 55 -78 17 -34 64
-77 146 -132 38 -26 101 -86 108 -102 3 -9 30 -32 59 -52 55 -36 104 -95 127
-153 7 -18 34 -49 60 -70 58 -47 165 -153 204 -201 16 -20 54 -64 85 -98 132
-142 337 -403 496 -630 32 -47 71 -91 86 -99 15 -8 33 -27 39 -42 6 -15 21
-46 34 -67 15 -26 21 -50 19 -72 -4 -29 -7 -32 -42 -36 -21 -2 -50 0 -66 4
-16 3 -60 14 -99 23 -38 9 -140 21 -225 26 -85 4 -200 13 -255 19 -55 5 -156
12 -225 15 -69 2 -156 7 -195 11 -38 3 -77 6 -85 6 -8 -1 -76 0 -150 0 -596 7
-979 -3 -1350 -32 -58 -5 -181 -13 -275 -19 -93 -5 -192 -12 -220 -15 -27 -3
-86 -8 -130 -11 -44 -3 -102 -10 -130 -15 -27 -5 -97 -12 -155 -15 -58 -4
-139 -14 -180 -22 -41 -8 -84 -17 -95 -19 -162 -27 -265 -48 -265 -54 0 -5 -9
-6 -20 -3 -11 3 -28 2 -37 -2 -10 -5 -22 -7 -26 -6 -11 2 -131 -31 -137 -38
-3 -3 -18 -7 -35 -9 -35 -4 -165 -44 -250 -78 -33 -13 -65 -24 -72 -24 -7 0
-33 -11 -59 -25 -26 -14 -51 -25 -55 -25 -9 0 -84 -44 -194 -115 -96 -62 -273
-203 -312 -249 -87 -103 -178 -220 -249 -321 -64 -90 -86 -127 -166 -275 -40
-75 -128 -275 -128 -293 0 -9 -13 -53 -30 -99 -16 -45 -30 -93 -30 -106 0 -13
-4 -32 -10 -42 -5 -10 -12 -34 -14 -54 -2 -19 -7 -40 -11 -46 -3 -5 -8 -40
-11 -77 -2 -36 -9 -87 -15 -112 -14 -58 -20 -480 -9 -586 4 -44 13 -109 20
-145 6 -36 13 -89 15 -118 2 -30 11 -79 20 -109 9 -31 15 -67 14 -82 -1 -14 1
-33 4 -41 4 -12 35 -115 42 -140 1 -3 5 -25 9 -50 4 -25 15 -67 24 -95 9 -27
17 -52 17 -55 12 -63 53 -205 76 -265 24 -64 34 -83 41 -79 4 3 5 -2 2 -11 -7
-17 34 -115 47 -115 5 0 6 -7 3 -15 -3 -8 3 -27 13 -42 10 -15 32 -53 47 -83
16 -30 42 -74 58 -98 15 -24 28 -46 28 -50 0 -9 101 -156 129 -188 12 -13 21
-27 21 -30 0 -25 282 -320 405 -424 28 -23 55 -48 60 -54 6 -7 39 -37 75 -66
36 -30 67 -56 70 -59 3 -4 25 -22 50 -40 25 -19 48 -40 52 -47 17 -26 248
-155 298 -166 8 -2 17 -5 20 -8 18 -18 162 -81 175 -76 8 3 15 1 15 -4 0 -5
12 -13 28 -16 15 -4 51 -18 80 -31 29 -13 61 -25 70 -26 9 -2 26 -8 37 -13 11
-6 40 -16 65 -23 25 -8 79 -24 120 -37 91 -28 261 -64 306 -64 18 0 36 -4 39
-10 3 -5 19 -10 34 -10 15 0 70 -9 121 -20 52 -10 97 -17 101 -14 4 2 10 0 14
-6 3 -5 28 -10 55 -10 27 0 77 -7 112 -15 35 -8 72 -14 83 -13 11 0 52 -4 90
-10 215 -34 838 -46 1235 -25 102 6 250 13 330 16 80 3 170 8 200 12 74 8 117
11 315 24 94 7 181 14 195 18 32 8 43 9 110 17 30 3 78 10 105 16 28 5 85 12
128 16 42 3 75 9 73 12 -2 4 13 8 34 8 42 2 152 21 345 60 167 33 175 34 220
40 22 3 56 12 76 19 20 8 39 12 42 9 2 -3 38 6 78 19 41 14 101 33 134 42 33
10 64 22 70 27 15 13 115 10 120 -4 2 -7 6 -83 9 -168 6 -183 14 -271 27 -286
5 -6 12 -67 16 -135 8 -159 8 -1684 0 -1846 l-7 -122 23 8 c12 5 21 13 20 18
-1 5 10 10 25 10 l27 0 0 -379 c0 -208 -4 -378 -8 -378 -5 0 -5 -4 -2 -10 3
-5 2 -10 -2 -10 -5 0 -8 -63 -8 -140 1 -78 -1 -143 -5 -145 -3 -2 -6 -38 -5
-80 1 -42 -1 -78 -5 -80 -3 -2 -6 -34 -5 -70 1 -36 -1 -68 -4 -70 -4 -2 -6
-78 -6 -169 0 -91 -3 -166 -8 -166 -4 0 -5 -4 -2 -10 3 -6 2 -10 -2 -10 -5 0
-9 -58 -8 -129 1 -72 -2 -128 -5 -126 -3 2 -5 -39 -5 -91 1 -53 -2 -97 -5 -99
-3 -2 -5 -26 -5 -54 0 -28 -2 -51 -5 -51 -3 0 -5 -59 -5 -131 1 -71 -2 -132
-6 -134 -4 -3 -5 -39 -4 -80 2 -41 -1 -73 -5 -70 -5 3 -7 -17 -5 -45 2 -27 0
-52 -4 -54 -4 -3 -7 -35 -6 -71 1 -36 -1 -68 -5 -70 -4 -2 -6 -25 -5 -50 1
-25 -1 -47 -5 -50 -3 -2 -6 -29 -5 -60 1 -30 -1 -58 -5 -60 -4 -2 -6 -20 -5
-40 2 -19 -2 -35 -8 -35 -6 0 -7 -3 -4 -7 4 -3 1 -13 -6 -21 -10 -13 -9 -14 3
-7 12 7 13 6 4 -6 -6 -8 -10 -38 -9 -67 1 -29 -1 -55 -5 -57 -3 -2 -5 -49 -5
-104 1 -55 -2 -98 -5 -96 -4 3 -6 -26 -5 -63 2 -39 -2 -73 -9 -81 -9 -12 -8
-13 4 -6 12 7 13 6 4 -6 -5 -8 -9 -27 -9 -44 1 -16 -1 -34 -5 -40 -4 -5 -6
-22 -5 -37 1 -16 -1 -28 -5 -28 -3 0 -6 -34 -5 -75 1 -41 -1 -75 -5 -75 -4 0
-6 -23 -5 -50 1 -28 -1 -50 -5 -50 -4 0 -6 -36 -5 -80 1 -44 -1 -80 -5 -80 -3
0 -6 -30 -5 -67 1 -38 -3 -72 -9 -78 -6 -7 -11 -44 -10 -86 1 -41 -2 -78 -6
-84 -3 -5 -6 -36 -5 -67 0 -32 -2 -58 -5 -58 -4 0 -6 -31 -5 -70 1 -38 -2 -70
-5 -70 -4 0 -6 -29 -5 -65 1 -36 -2 -65 -6 -65 -5 0 -5 -7 -2 -17 4 -9 2 -14
-3 -10 -6 3 -9 -22 -9 -66 1 -40 -3 -78 -9 -86 -9 -12 -8 -13 2 -7 11 7 12 4
4 -10 -5 -11 -8 -34 -7 -52 1 -17 -1 -32 -5 -32 -3 0 -5 -67 -5 -149 1 -83 -2
-148 -6 -145 -4 2 -6 -17 -4 -44 1 -26 -2 -53 -9 -61 -9 -12 -8 -13 2 -7 11 7
12 4 3 -13 -7 -12 -9 -26 -6 -31 3 -6 2 -10 -3 -10 -5 0 -8 -16 -6 -35 1 -20
-2 -35 -8 -35 -6 0 -8 -3 -5 -7 4 -3 1 -13 -6 -21 -10 -13 -9 -14 3 -7 13 8
13 6 -1 -15 -8 -14 -14 -37 -13 -53 2 -17 -1 -25 -8 -21 -6 4 -8 -1 -3 -15 4
-14 2 -21 -6 -21 -7 0 -9 -3 -6 -7 4 -3 1 -13 -6 -21 -10 -13 -9 -14 3 -7 12
7 13 6 4 -6 -6 -8 -10 -24 -8 -36 2 -13 -1 -23 -7 -23 -5 0 -8 -4 -4 -9 3 -5
1 -12 -4 -16 -6 -3 -8 -12 -4 -20 3 -8 0 -15 -6 -15 -7 0 -11 -6 -10 -12 3
-28 -2 -49 -10 -43 -6 3 -8 -6 -5 -21 3 -15 1 -23 -5 -20 -6 4 -8 -4 -5 -19 2
-14 0 -25 -6 -25 -7 0 -9 -8 -5 -21 5 -14 4 -19 -4 -15 -7 4 -9 1 -5 -7 3 -8
1 -18 -5 -21 -6 -4 -7 -14 -4 -23 5 -12 3 -14 -7 -8 -10 6 -12 3 -8 -13 4 -12
2 -22 -3 -22 -4 0 -5 -7 -2 -17 4 -10 2 -14 -5 -9 -7 4 -9 -2 -6 -19 3 -15 0
-25 -7 -25 -7 0 -9 -3 -6 -6 3 -4 1 -16 -5 -28 -7 -11 -11 -24 -10 -28 1 -5
-3 -8 -9 -8 -5 0 -7 -4 -4 -10 3 -6 1 -10 -5 -10 -6 0 -8 -5 -5 -10 4 -6 1
-17 -5 -25 -7 -8 -9 -15 -4 -15 4 0 -3 -12 -17 -27 -15 -17 -17 -22 -5 -13 18
14 18 14 6 -7 -8 -12 -17 -20 -21 -18 -3 3 -6 -3 -6 -13 0 -33 -3 -43 -11 -38
-4 2 -14 -5 -22 -17 -12 -21 -12 -21 6 -7 10 8 6 -1 -11 -19 -16 -19 -23 -30
-15 -26 8 4 5 -2 -7 -14 -12 -11 -27 -21 -33 -21 -6 0 -9 -4 -6 -8 3 -5 -6
-16 -20 -26 -13 -11 -24 -25 -24 -32 0 -19 -55 -76 -64 -67 -4 4 -4 0 -1 -9 4
-9 1 -19 -6 -24 -8 -5 -10 -3 -4 7 4 8 -3 3 -17 -11 -13 -14 -23 -28 -21 -32
2 -5 -3 -8 -12 -8 -9 0 -14 -4 -10 -9 3 -5 -5 -13 -17 -16 -13 -4 -31 -17 -41
-29 -10 -11 -16 -14 -12 -6 4 10 2 9 -8 -2 -8 -10 -17 -15 -20 -11 -4 3 -7 1
-7 -6 0 -7 -4 -10 -9 -7 -5 3 -14 -1 -20 -8 -7 -8 -23 -13 -37 -10 -18 3 -23
1 -18 -7 4 -7 2 -10 -7 -7 -8 3 -20 -2 -27 -11 -10 -12 -12 -13 -6 -1 7 12 5
13 -8 3 -8 -7 -19 -9 -23 -5 -5 4 -5 2 -2 -4 8 -15 -14 -20 -75 -19 -26 0 -45
-2 -42 -6 2 -4 -3 -10 -12 -13 -10 -4 -13 -2 -8 7 6 9 5 9 -8 0 -8 -7 -18 -10
-21 -6 -4 3 -7 1 -7 -5 0 -6 -9 -9 -20 -7 -11 2 -20 0 -20 -5 0 -4 -11 -7 -25
-5 -14 1 -25 -1 -25 -4 0 -4 -22 -7 -49 -6 -30 1 -47 -3 -44 -9 4 -5 0 -7 -9
-3 -9 3 -21 0 -28 -6 -10 -9 -11 -9 -5 3 7 12 6 13 -6 4 -8 -7 -26 -10 -42 -8
-15 1 -25 -1 -22 -6 3 -4 -17 -7 -45 -6 -27 2 -47 -1 -45 -5 3 -4 -16 -6 -40
-4 -25 1 -47 -1 -50 -4 -2 -4 -85 -6 -184 -6 -100 0 -181 -2 -181 -5 0 -4
-137 -6 -305 -6 -168 1 -305 3 -305 6 0 3 -63 5 -140 5 -77 0 -140 3 -140 7 0
4 -11 5 -24 2 -14 -2 -27 0 -30 4 -3 5 -19 8 -36 7 -16 -1 -30 1 -30 5 0 4
-13 6 -30 5 -16 -1 -30 1 -30 6 0 5 -7 6 -15 3 -8 -4 -15 -1 -15 5 0 7 -6 11
-12 10 -28 -3 -37 2 -33 21 2 11 1 20 -3 20 -4 0 -7 63 -7 141 0 77 -2 142 -6
145 -3 2 -5 19 -4 38 1 19 -1 33 -5 31 -3 -2 -7 51 -8 118 -5 338 -7 397 -12
397 -3 0 -5 28 -5 63 1 34 -3 68 -9 76 -9 12 -8 13 3 6 11 -6 12 -5 5 6 -5 8
-10 88 -11 179 -4 241 -6 290 -13 290 -4 0 -6 34 -5 76 0 41 -2 77 -5 79 -4 2
-6 58 -5 124 1 66 -2 118 -5 116 -4 -2 -6 50 -5 116 0 65 -2 119 -5 119 -3 0
-6 49 -5 109 0 60 -2 108 -5 106 -3 -2 -5 86 -5 195 0 109 3 196 7 193 5 -2 8
3 8 11 0 24 20 30 105 33 97 3 105 4 105 14 0 4 27 6 60 5 34 -2 57 0 54 5 -3
5 14 7 40 5 25 -3 48 -1 50 3 3 5 17 7 31 6 14 -2 25 0 25 4 0 4 19 6 43 6 24
-1 50 5 61 14 17 14 18 14 11 1 -6 -12 -5 -12 5 -3 7 6 19 9 26 6 8 -3 14 0
14 7 0 7 7 10 15 7 8 -4 17 -2 20 2 2 5 18 7 35 6 16 -1 30 1 30 6 0 4 15 8
33 8 51 0 67 4 67 14 0 5 7 7 15 4 8 -4 17 -2 20 2 2 5 18 7 35 6 16 -1 30 1
30 5 0 7 17 10 57 11 12 1 24 7 27 15 3 7 12 11 21 8 8 -3 15 -2 15 4 0 5 14
8 30 7 17 -1 30 2 30 8 0 6 3 7 7 4 3 -4 13 -1 21 6 13 10 14 9 8 -2 -6 -8 0
-7 18 4 14 10 26 14 26 10 0 -5 10 0 22 11 13 12 18 13 13 4 -7 -12 -6 -13 6
-4 8 6 23 10 34 8 11 -1 23 2 27 9 4 7 15 12 25 12 10 0 24 4 32 9 10 7 12 5
6 -5 -5 -8 4 -3 20 11 16 14 25 18 21 10 -4 -8 0 -6 8 4 9 11 16 16 16 12 0
-4 7 0 16 8 8 9 20 13 26 10 7 -4 8 -2 4 4 -4 7 -1 12 8 12 8 0 18 5 22 12 5
7 3 8 -6 3 -9 -5 -11 -4 -6 3 4 7 14 12 22 12 8 0 13 4 10 9 -3 5 2 15 11 22
14 12 16 12 8 0 -6 -10 -4 -12 4 -7 7 5 10 14 7 22 -3 8 1 17 10 21 8 3 13 12
10 19 -3 8 -1 14 4 14 5 0 7 8 5 17 -7 37 -10 48 -15 53 -22 22 -42 53 -30 45
9 -6 3 1 -12 15 -16 14 -28 31 -28 38 0 7 -4 10 -10 7 -5 -3 -10 -1 -10 5 0 6
-4 9 -9 6 -5 -3 -11 1 -15 9 -3 8 -12 15 -21 15 -8 0 -15 5 -15 11 0 5 -4 8
-9 5 -5 -3 -12 1 -15 10 -4 11 -10 13 -19 6 -6 -5 -20 -8 -29 -7 -10 2 -18 -1
-18 -6 0 -6 -4 -8 -9 -5 -13 9 -42 -4 -35 -16 3 -5 -6 -7 -23 -5 -15 2 -34 -1
-42 -7 -12 -9 -13 -8 -6 4 7 12 5 12 -11 -1 -10 -9 -28 -15 -39 -13 -11 1 -28
-5 -39 -14 -15 -13 -18 -14 -12 -2 6 12 5 12 -6 -1 -7 -9 -23 -15 -35 -14 -12
1 -20 -2 -17 -7 3 -4 2 -9 -3 -9 -18 -3 -70 -9 -95 -12 -16 -1 -28 -5 -28 -9
0 -4 -7 -4 -17 -1 -10 4 -14 2 -9 -5 4 -7 -6 -10 -34 -8 -22 2 -43 -1 -46 -6
-3 -5 -12 -7 -20 -4 -8 3 -14 1 -14 -4 0 -5 -11 -7 -25 -4 -14 2 -25 0 -25 -4
0 -5 -10 -8 -22 -8 -13 1 -29 -2 -37 -8 -7 -6 -41 -12 -75 -13 -107 -5 -126
-7 -126 -14 0 -3 -25 -6 -56 -5 -30 1 -57 -1 -60 -5 -2 -4 -26 -6 -54 -4 -27
2 -52 0 -55 -4 -2 -5 -20 -7 -40 -6 -19 2 -35 0 -35 -4 0 -4 -33 -7 -72 -6
-40 1 -79 -3 -87 -9 -12 -9 -13 -8 -6 3 6 11 5 12 -6 5 -8 -5 -68 -10 -134
-12 -243 -5 -1017 -7 -1020 -2 -2 3 -31 5 -64 5 -34 0 -61 2 -61 6 0 3 -20 5
-45 4 -25 -1 -48 1 -50 6 -3 4 -17 6 -31 3 -14 -3 -23 -1 -20 4 3 5 -10 8 -29
7 -20 -2 -37 1 -40 6 -3 4 -14 6 -25 4 -11 -2 -20 0 -20 5 0 5 -11 7 -25 4
-14 -2 -25 0 -25 5 0 5 -18 8 -40 6 -22 -2 -38 0 -35 4 2 5 -7 7 -20 5 -14 -1
-25 1 -25 6 0 5 -8 7 -17 5 -10 -1 -24 2 -30 8 -7 5 -13 6 -13 2 0 -4 -8 -1
-17 6 -14 12 -16 12 -8 0 6 -11 5 -12 -6 -5 -18 11 -35 15 -79 18 -19 1 -45 8
-57 15 -13 6 -23 9 -23 5 0 -3 -8 0 -17 7 -14 12 -16 12 -8 -1 6 -9 -3 -7 -27
7 -20 12 -49 20 -67 18 -17 -1 -34 2 -37 7 -3 5 -13 3 -22 -4 -13 -11 -14 -11
-7 2 5 9 -1 7 -15 -5 -14 -12 -20 -14 -15 -5 4 8 -4 4 -20 -10 -16 -14 -25
-19 -20 -11 5 9 4 12 -3 7 -7 -4 -12 -14 -12 -22 0 -8 -4 -12 -10 -9 -5 3 -10
1 -10 -4 0 -6 -6 -11 -14 -11 -8 0 -18 -5 -22 -12 -5 -7 -2 -9 7 -4 8 4 5 0
-6 -9 -11 -9 -19 -20 -18 -25 2 -5 -5 -6 -14 -3 -10 4 -14 2 -10 -4 4 -6 -3
-23 -15 -39 -13 -15 -17 -25 -10 -21 8 6 10 3 6 -7 -3 -9 -10 -16 -15 -16 -4
0 -5 -7 -2 -17 4 -10 2 -14 -4 -10 -7 4 -10 0 -8 -10 1 -10 -3 -24 -9 -32 -9
-12 -8 -13 3 -6 11 6 12 5 5 -6 -5 -8 -9 -48 -10 -89 -1 -41 -3 -75 -4 -75 -1
0 -3 -29 -4 -65 -1 -36 -5 -71 -10 -79 -7 -11 -6 -12 5 -6 11 7 12 6 3 -6 -6
-8 -10 -72 -10 -161 1 -82 -1 -148 -4 -148 -3 0 -5 -27 -5 -60 0 -33 -2 -60
-5 -60 -3 0 -6 -39 -7 -88 -2 -48 -4 -135 -5 -194 -2 -60 -5 -108 -9 -108 -3
0 -5 -29 -4 -65 2 -36 0 -67 -4 -69 -3 -2 -6 -94 -5 -203 0 -127 -3 -203 -10
-212 -9 -12 -8 -13 4 -6 13 8 13 7 1 -8 -7 -9 -10 -17 -6 -17 4 0 1 -8 -6 -17
-12 -15 -12 -16 1 -8 12 7 13 6 4 -6 -5 -8 -9 -53 -9 -101 1 -49 -1 -88 -5
-88 -3 0 -7 -42 -8 -92 -4 -171 -7 -223 -16 -237 -7 -10 -6 -12 4 -6 10 6 11
4 4 -6 -5 -8 -10 -93 -11 -189 -4 -250 -6 -289 -13 -285 -3 2 -5 -39 -5 -91 1
-52 -1 -97 -5 -99 -3 -2 -5 -45 -4 -97 0 -53 -4 -99 -10 -107 -9 -12 -8 -13 3
-6 10 6 12 4 5 -6 -4 -8 -9 -23 -9 -34 0 -11 -4 -26 -9 -34 -6 -10 -6 -12 2
-7 21 13 13 0 -20 -30 -18 -16 -26 -20 -18 -9 8 11 -1 7 -19 -10 -19 -16 -31
-25 -28 -18 5 8 1 8 -17 0 -13 -7 -22 -15 -20 -19 5 -7 -26 -19 -38 -15 -4 1
-13 -7 -21 -17 -8 -11 -19 -16 -26 -12 -6 4 -14 1 -17 -8 -3 -8 -12 -12 -20
-9 -8 3 -14 1 -14 -5 0 -5 -7 -13 -16 -16 -10 -4 -13 -2 -9 7 4 6 0 4 -9 -7
-8 -10 -19 -15 -25 -11 -6 3 -11 1 -11 -5 0 -6 -4 -8 -10 -5 -5 3 -10 1 -10
-5 0 -6 -4 -8 -10 -5 -5 3 -10 2 -10 -4 0 -5 -11 -8 -24 -5 -14 2 -28 -1 -32
-7 -5 -8 -3 -9 6 -4 9 5 11 4 6 -4 -4 -6 -18 -9 -32 -7 -14 3 -22 1 -19 -5 5
-8 -15 -14 -37 -10 -5 0 -8 -4 -8 -10 0 -5 -4 -7 -10 -4 -5 3 -19 1 -31 -6
-17 -9 -20 -8 -13 3 4 7 -3 4 -16 -7 -14 -12 -20 -14 -15 -5 6 12 5 12 -5 3
-7 -6 -19 -9 -28 -6 -11 5 -13 3 -7 -7 6 -10 4 -12 -8 -7 -10 3 -17 2 -17 -2
0 -5 -7 -12 -16 -15 -10 -4 -13 -2 -8 7 6 9 4 9 -7 1 -8 -6 -26 -10 -41 -9
-16 1 -28 -2 -28 -8 0 -5 -6 -7 -14 -4 -7 3 -19 0 -26 -6 -10 -9 -11 -9 -5 3
7 12 6 13 -6 4 -8 -6 -24 -10 -36 -9 -13 1 -23 -1 -23 -5 0 -3 -16 -6 -35 -5
-19 1 -35 -2 -35 -6 0 -4 -9 -6 -20 -4 -11 2 -20 0 -20 -5 0 -5 -25 -7 -55 -6
-31 2 -58 -1 -60 -5 -3 -4 -28 -6 -55 -4 -28 2 -50 0 -50 -5 0 -4 -22 -6 -50
-5 -27 1 -50 -1 -50 -4 0 -4 -61 -7 -135 -6 -74 0 -135 -2 -135 -5 0 -3 -153
-5 -340 -5 -187 0 -340 2 -340 5 0 3 -46 6 -103 6 -101 1 -133 5 -152 15 -5 3
-22 5 -37 4 -16 0 -28 2 -28 6 0 3 -16 5 -35 4 -19 -2 -35 1 -35 6 0 4 -9 6
-20 4 -11 -2 -20 1 -20 7 0 6 -3 8 -7 5 -3 -4 -13 -1 -21 6 -13 10 -14 9 -8
-1 7 -11 4 -12 -13 -3 -12 7 -26 9 -31 6 -6 -3 -10 -2 -10 4 0 6 -7 7 -17 4
-10 -4 -14 -2 -9 5 4 7 -1 9 -16 7 -12 -3 -33 2 -46 11 -14 9 -21 11 -17 5 3
-6 -10 -2 -30 9 -20 11 -33 15 -29 8 4 -7 -2 -5 -13 5 -11 9 -27 15 -35 12 -9
-4 -18 1 -22 10 -3 10 -12 15 -21 11 -8 -3 -15 0 -15 6 0 6 -3 8 -7 5 -3 -4
-13 -1 -21 6 -13 9 -14 9 -8 0 5 -9 2 -11 -8 -7 -9 3 -14 10 -11 15 3 4 -4 6
-15 4 -11 -2 -20 1 -20 6 0 6 -4 7 -10 4 -5 -3 -10 1 -10 10 0 9 -4 13 -10 10
-5 -3 -20 0 -32 7 -13 7 -29 11 -35 10 -7 -2 -13 3 -13 11 0 7 -6 14 -12 14
-21 0 -142 63 -150 78 -5 7 -17 11 -28 8 -14 -4 -20 -1 -18 8 2 9 -4 13 -16
11 -12 -2 -16 1 -10 9 5 9 2 10 -9 6 -10 -3 -17 -2 -17 4 0 6 -4 7 -10 4 -5
-3 -10 -1 -10 4 0 6 -7 11 -16 11 -9 0 -12 5 -8 12 5 7 2 9 -9 5 -8 -3 -21 1
-29 10 -14 18 -16 68 -21 618 -1 182 -5 335 -8 340 -3 6 -5 85 -5 178 1 92 -1
167 -4 167 -3 0 -5 72 -5 160 0 88 -2 160 -5 160 -3 0 -5 64 -5 143 1 85 -3
148 -9 156 -9 12 -8 13 4 6 12 -7 13 -6 4 6 -6 9 -9 63 -7 144 3 129 4 314 3
348 -1 9 -5 17 -9 17 -4 0 -7 45 -6 100 0 55 -2 100 -5 100 -3 0 -6 73 -7 162
-1 90 -5 190 -8 223 -3 33 -7 119 -8 190 -2 72 -7 136 -11 144 -7 10 -5 12 5
6 11 -7 12 -6 3 6 -6 8 -10 39 -9 69 1 30 -2 60 -5 65 -4 6 -6 38 -5 72 1 35
-1 63 -5 63 -3 0 -7 64 -8 143 -4 263 -7 372 -13 382 -3 6 -5 62 -5 127 1 64
-1 115 -4 113 -4 -2 -6 43 -5 100 0 57 -2 102 -6 99 -13 -8 -15 24 -15 263 1
134 -2 243 -5 243 -3 0 -5 20 -4 46 1 25 -1 47 -5 49 -3 2 -6 67 -5 144 0 78
-2 141 -5 141 -3 0 -6 19 -7 43 0 23 -4 60 -8 82 -4 22 -8 150 -11 285 -2 135
-6 288 -9 340 -3 52 -6 139 -8 193 -1 53 -4 97 -7 97 -3 0 -5 63 -5 141 0 77
-3 143 -6 145 -4 2 -5 25 -4 51 1 27 -2 56 -7 67 -8 14 -7 17 4 10 10 -6 11
-5 2 7 -6 9 -10 92 -10 232 1 119 -1 217 -4 217 -6 0 -8 46 -14 325 -2 88 -5
160 -6 160 -1 0 -3 41 -4 90 -1 50 -4 95 -7 100 -3 6 -5 38 -5 73 1 34 -1 62
-4 62 -3 0 -5 103 -5 230 0 126 -2 230 -5 230 -3 0 -5 35 -5 78 1 42 -4 83 -9
91 -9 12 -8 13 3 6 11 -6 12 -5 5 6 -9 14 -12 165 -16 847 -2 177 -5 322 -8
322 -3 0 -6 137 -6 305 0 168 3 305 6 305 3 0 6 96 7 213 3 258 10 522 13 522
3 0 9 123 12 267 2 70 6 129 10 133 3 4 4 20 1 36 -2 16 0 29 4 29 5 0 8 38 7
85 0 47 3 85 8 85 4 0 5 16 2 36 -3 22 -2 34 4 30 6 -3 9 14 7 44 -1 28 0 50
4 50 3 0 7 51 8 113 2 130 6 177 13 172 3 -2 5 94 5 213 -1 141 2 222 9 231 9
12 8 13 -4 6 -12 -7 -13 -6 -4 6 6 8 10 33 9 56 -1 28 3 44 12 47 9 4 12 13 8
26 -4 12 -1 28 7 37 11 14 11 16 -2 8 -11 -6 -10 -3 3 12 9 11 14 23 10 26 -3
4 0 7 7 7 7 0 10 3 7 7 -4 3 -1 13 6 21 10 13 9 14 -3 7 -12 -6 -12 -5 -3 5 6
7 9 19 6 28 -4 9 -2 13 4 9 6 -4 9 13 7 43 -1 31 2 48 8 44 6 -4 8 1 4 14 -4
11 -2 23 4 27 6 3 8 11 5 16 -4 5 -1 9 6 9 7 0 9 3 6 7 -4 3 1 15 10 26 13 15
14 18 3 12 -9 -5 -7 1 5 15 11 13 14 20 7 16 -11 -7 -11 -4 0 13 7 12 17 21
21 21 5 0 7 7 3 15 -3 8 -1 15 5 15 6 0 7 5 4 10 -3 6 -2 10 3 10 5 0 8 10 7
23 -1 12 3 28 9 36 9 12 8 13 -2 7 -11 -7 -12 -4 -3 12 6 11 8 28 5 36 -3 9
-1 16 6 16 6 0 8 5 5 10 -3 6 -2 10 4 10 5 0 8 9 6 20 -2 11 0 20 4 20 4 0 7
12 6 28 -1 15 3 33 9 41 9 12 8 13 -4 6 -12 -6 -12 -5 -3 5 6 7 9 19 6 26 -3
8 0 14 7 14 7 0 9 8 5 20 -4 12 -2 20 5 20 6 0 8 5 5 10 -3 6 -1 10 4 10 6 0
9 10 7 23 -2 12 3 33 11 46 12 18 12 22 2 16 -9 -6 -9 -2 2 11 10 12 15 34 13
62 -1 23 2 42 7 42 6 0 7 5 4 10 -3 6 -1 10 5 10 7 0 9 8 5 20 -4 12 -2 20 5
20 7 0 9 7 6 16 -4 10 1 26 11 37 10 11 12 17 5 13 -11 -7 -11 -4 -1 12 12 19
69 27 66 9 -1 -5 8 -13 20 -18 29 -11 49 17 58 84 4 26 11 50 16 53 5 3 9 16
9 29 0 13 4 34 9 47 28 73 61 188 64 220 1 20 5 34 9 32 5 -4 20 39 24 71 0 6
4 17 7 25 3 8 20 65 37 125 18 61 40 133 50 162 10 28 16 54 13 57 -3 3 1 8 9
11 9 4 13 15 11 28 -2 12 7 48 21 80 14 32 26 66 26 77 0 10 5 22 11 26 6 3 9
15 6 25 -3 11 -1 17 4 13 5 -3 9 2 9 11 0 8 4 23 9 33 6 9 24 55 41 102 18 46
40 100 50 120 10 19 31 64 45 100 15 36 35 82 46 103 10 20 16 37 13 37 -3 0
2 7 10 16 9 8 16 24 16 34 0 10 5 22 11 25 5 4 8 12 6 18 -2 6 5 19 15 29 10
10 18 27 18 38 0 11 4 20 8 20 9 0 36 59 35 78 -1 6 3 12 7 12 7 0 88 143 145
255 11 22 25 46 32 53 7 7 33 50 58 95 25 45 51 91 58 101 7 11 46 74 88 141
42 66 78 125 80 130 4 10 52 84 155 240 54 82 109 142 210 230 32 28 72 65 89
84 16 18 60 65 98 103 37 38 88 101 115 141 31 48 66 85 104 112 64 46 145
110 203 162 22 20 72 64 110 98 128 115 383 263 560 326 101 35 138 43 230 49
104 7 337 51 560 105 77 18 117 23 175 19 41 -3 163 -9 270 -15z m3025 -3694
c33 -3 132 -7 220 -10 88 -3 176 -8 195 -11 53 -8 103 -12 249 -18 73 -4 136
-8 140 -10 3 -2 38 -7 76 -11 39 -4 75 -11 80 -15 6 -5 20 -9 30 -8 21 1 42
-4 110 -22 22 -6 54 -13 72 -14 17 -2 36 -7 43 -11 6 -4 24 -8 38 -10 37 -4
77 -13 107 -25 14 -5 25 -7 25 -5 0 2 12 0 28 -6 15 -6 46 -12 70 -14 23 -1
46 -5 49 -9 4 -3 15 -6 25 -6 10 0 18 -4 18 -10 0 -5 14 -10 30 -10 17 0 30
-4 30 -9 0 -4 12 -7 28 -7 15 1 39 -4 54 -11 15 -8 40 -15 56 -17 15 -1 38 -8
51 -15 12 -7 25 -10 28 -7 3 3 23 -4 44 -14 21 -11 47 -20 59 -20 11 0 20 -4
20 -10 0 -5 8 -10 18 -10 11 0 33 -7 51 -16 17 -9 38 -17 45 -18 7 -1 25 -9
39 -19 15 -9 31 -17 36 -17 13 0 74 -33 82 -44 4 -5 12 -5 18 -2 6 4 11 3 11
-3 0 -5 26 -25 58 -45 31 -19 69 -44 82 -56 14 -11 40 -33 59 -48 18 -15 41
-34 50 -42 9 -8 34 -30 54 -47 21 -18 35 -33 31 -33 -4 0 5 -12 20 -26 14 -15
26 -31 26 -36 0 -5 5 -6 10 -3 6 3 10 3 10 -2 0 -9 31 -49 82 -106 21 -23 38
-45 38 -49 0 -3 16 -22 35 -42 19 -20 32 -36 29 -36 -5 0 50 -75 66 -90 3 -3
11 -17 19 -32 8 -16 18 -28 23 -28 4 0 8 -4 8 -10 0 -5 19 -35 43 -66 23 -32
41 -61 39 -66 -1 -5 5 -11 13 -14 8 -3 12 -10 9 -15 -3 -5 0 -9 6 -9 6 0 8 -4
5 -10 -3 -5 -2 -10 3 -10 9 0 25 -37 23 -52 -1 -5 4 -8 9 -8 6 0 10 -6 10 -12
0 -16 42 -101 53 -109 5 -3 8 -9 8 -13 -3 -23 0 -36 9 -31 5 3 7 0 4 -9 -3 -8
1 -28 10 -44 8 -16 12 -32 9 -36 -4 -3 -2 -6 4 -6 6 0 13 -15 16 -32 7 -44 16
-85 29 -133 18 -63 22 -84 34 -180 3 -27 9 -52 12 -55 4 -3 7 -30 6 -60 0 -30
4 -66 9 -80 4 -14 10 -77 13 -140 3 -63 8 -116 12 -117 4 -2 6 -58 6 -126 -1
-105 -4 -151 -19 -272 -1 -11 -5 -27 -8 -35 -3 -8 -8 -33 -11 -55 -8 -62 -15
-88 -24 -94 -4 -3 -7 -18 -7 -33 1 -15 -2 -25 -6 -22 -4 2 -10 -13 -14 -34 -4
-20 -5 -38 -3 -39 1 -1 -6 -9 -17 -17 -11 -9 -16 -16 -12 -16 4 0 2 -10 -5
-22 -7 -13 -13 -25 -13 -28 0 -3 -7 -16 -15 -30 -8 -14 -15 -27 -15 -30 -3
-14 -31 -66 -38 -71 -5 -3 -9 -10 -9 -15 -2 -24 -11 -44 -20 -44 -5 0 -7 -4
-4 -8 3 -5 -3 -18 -14 -29 -10 -12 -16 -24 -13 -27 4 -3 0 -6 -7 -6 -7 0 -10
-3 -7 -6 4 -4 -2 -19 -13 -34 -11 -16 -20 -33 -20 -39 0 -6 -4 -11 -10 -11 -5
0 -10 -7 -10 -16 0 -8 -5 -12 -11 -8 -8 4 -9 0 -4 -15 4 -14 1 -23 -9 -27 -9
-3 -16 -12 -16 -19 0 -7 -7 -18 -15 -25 -8 -7 -12 -17 -8 -23 3 -5 2 -7 -4 -4
-10 6 -50 -52 -45 -66 1 -5 -2 -6 -7 -3 -5 3 -17 -7 -27 -22 -10 -15 -16 -27
-14 -27 2 0 -16 -20 -40 -45 -24 -25 -44 -47 -43 -50 1 -3 -12 -20 -28 -39
-16 -19 -29 -38 -29 -43 0 -4 -7 -8 -16 -8 -10 0 -14 -6 -10 -15 3 -9 0 -15
-10 -15 -8 0 -12 -4 -9 -10 3 -5 2 -10 -4 -10 -5 0 -13 -9 -16 -21 -4 -11 -9
-18 -12 -16 -2 3 -22 -13 -43 -34 -21 -21 -44 -39 -51 -39 -7 0 -10 -3 -7 -6
8 -7 -25 -42 -34 -37 -5 2 -8 -1 -8 -6 0 -6 -5 -11 -11 -11 -6 0 -16 -6 -24
-12 -22 -21 -55 -48 -59 -48 -2 0 -37 -20 -77 -45 -39 -24 -77 -42 -82 -38 -6
3 -7 1 -3 -5 4 -7 2 -13 -3 -13 -6 -1 -14 -3 -18 -4 -5 -2 -18 -6 -30 -10 -13
-4 -21 -11 -18 -15 3 -5 -8 -11 -25 -15 -16 -4 -30 -10 -30 -14 0 -7 -7 -9
-50 -13 -11 -1 -20 -6 -20 -10 0 -4 -7 -5 -15 -2 -8 4 -17 -1 -21 -10 -3 -9
-10 -14 -14 -11 -4 3 -23 -1 -41 -8 -19 -8 -41 -13 -49 -12 -8 1 -19 -2 -25
-6 -12 -8 -57 -19 -66 -16 -4 1 -15 -5 -25 -14 -11 -8 -29 -14 -41 -13 -13 0
-23 -3 -23 -8 0 -5 -4 -6 -10 -3 -5 3 -10 3 -10 -2 0 -8 -11 -10 -70 -16 -14
-1 -28 -6 -31 -10 -3 -5 -30 -10 -60 -13 -30 -3 -74 -10 -99 -15 -63 -15 -79
-18 -125 -24 -22 -3 -57 -9 -77 -14 -20 -5 -39 -6 -42 -3 -4 3 -6 0 -6 -7 0
-7 -4 -10 -9 -6 -5 3 -12 1 -16 -5 -4 -6 -10 -8 -15 -5 -5 3 -21 0 -37 -7 -15
-6 -57 -12 -93 -13 -57 -2 -145 -10 -220 -21 -46 -6 -125 -15 -160 -18 -19 -2
-42 -6 -51 -10 -9 -4 -54 -9 -100 -11 -46 -2 -95 -6 -109 -9 -24 -6 -109 -12
-334 -21 -61 -2 -128 -7 -150 -11 -23 -4 -93 -8 -156 -9 -63 -2 -146 -6 -185
-10 -92 -10 -826 -12 -832 -2 -2 4 -9 5 -14 2 -5 -4 -9 -3 -9 2 0 4 -53 9
-118 10 -101 2 -157 7 -157 13 0 1 -18 3 -40 5 -134 12 -200 20 -200 25 0 1
-18 3 -40 5 -22 1 -51 6 -65 10 -29 10 -37 11 -108 19 -29 3 -57 8 -61 11 -8
4 -98 17 -131 17 -8 1 -19 4 -25 8 -12 9 -85 24 -102 21 -7 -1 -25 5 -40 12
-16 8 -38 13 -50 12 -13 -1 -23 2 -23 7 0 5 -4 7 -9 3 -5 -3 -15 1 -23 8 -7 7
-22 12 -33 12 -11 0 -29 5 -40 12 -11 7 -27 13 -37 13 -10 0 -18 5 -18 11 0 5
-5 7 -10 4 -6 -4 -17 -1 -25 5 -8 7 -15 10 -15 6 0 -4 -13 0 -29 8 -16 9 -32
12 -35 8 -4 -3 -11 0 -16 7 -4 8 -16 15 -27 16 -10 1 -29 7 -43 15 -14 8 -36
16 -48 18 -13 1 -33 12 -44 22 -12 11 -25 17 -30 14 -4 -3 -8 0 -8 5 0 6 -3
10 -7 9 -5 -1 -19 4 -33 12 -14 7 -26 13 -27 12 -5 -3 -78 33 -84 42 -4 5 -12
5 -18 2 -6 -4 -14 0 -17 8 -3 9 -9 14 -13 11 -5 -2 -28 16 -54 40 -25 25 -48
45 -51 45 -6 0 -52 38 -88 73 -10 9 -22 17 -27 17 -5 0 -13 9 -16 21 -4 11 -9
18 -12 15 -4 -3 -18 7 -32 22 -15 15 -43 38 -63 52 -20 13 -34 28 -32 32 3 4
1 8 -4 8 -5 0 -38 29 -74 65 -41 40 -74 65 -88 65 -16 0 -20 4 -15 19 3 11 -1
25 -10 34 -8 9 -15 21 -15 27 0 6 -3 9 -7 7 -9 -5 -28 13 -30 26 -1 5 -17 26
-36 48 -20 21 -33 39 -30 39 5 0 -57 81 -69 90 -4 3 -14 21 -23 40 -18 40 -35
68 -52 88 -7 7 -13 20 -13 28 0 7 -9 24 -20 36 -10 13 -18 25 -17 28 1 3 -9
22 -21 42 -13 21 -20 43 -16 49 4 7 3 9 -3 6 -6 -4 -14 4 -17 18 -3 13 -11 37
-18 52 -6 15 -12 30 -13 33 -1 3 -5 13 -9 22 -4 9 -9 23 -10 32 -1 8 -5 19 -9
22 -4 4 -7 18 -7 30 0 13 -5 26 -11 29 -5 4 -8 12 -6 18 2 7 -2 27 -9 46 -8
19 -12 36 -10 39 3 2 -1 16 -8 31 -7 14 -11 32 -9 39 3 6 1 12 -4 12 -5 0 -10
13 -11 30 -1 16 -7 42 -13 57 -6 15 -14 46 -16 68 -3 22 -8 42 -12 45 -7 6
-11 21 -13 58 -1 15 -5 32 -9 37 -4 6 -10 35 -12 65 -6 64 -16 110 -26 110 -3
0 -5 28 -5 63 1 34 -4 71 -11 82 -14 24 -14 592 0 615 5 7 10 32 11 54 1 23 5
52 8 66 11 44 17 74 23 105 3 17 9 38 14 47 5 9 10 28 11 42 1 15 6 26 11 26
4 0 6 4 3 8 -3 5 1 21 9 35 8 15 14 31 15 35 2 18 13 58 19 67 3 6 7 19 8 29
2 11 10 27 17 35 8 9 16 23 18 31 2 8 9 21 16 28 7 8 10 18 7 23 -4 5 -1 9 5
9 6 0 9 4 6 9 -3 5 1 12 10 15 9 4 14 13 10 22 -3 8 -2 12 4 9 6 -3 11 -1 11
4 5 38 28 81 44 81 10 0 13 5 9 12 -4 6 -1 16 7 22 18 14 65 88 61 99 -1 4 2
7 7 7 5 0 22 18 39 40 16 22 31 37 34 34 3 -3 9 7 12 21 4 14 11 23 16 20 5
-3 11 4 15 15 3 11 11 20 16 20 5 0 9 5 9 11 0 16 29 41 40 34 6 -3 7 1 4 10
-5 11 0 18 15 22 11 3 19 9 16 13 -3 4 2 13 10 20 8 7 15 10 15 6 0 -3 8 2 18
12 41 38 71 60 76 55 3 -3 8 1 12 10 3 9 12 13 21 10 10 -4 14 -2 10 4 -3 5
12 20 33 32 22 12 40 19 40 14 0 -4 6 2 14 13 8 11 34 28 58 38 24 10 51 22
60 27 10 5 26 9 35 9 10 0 27 7 37 15 11 8 28 15 39 15 10 0 16 4 13 8 -2 4 7
9 21 10 14 1 31 6 37 11 6 5 14 10 19 10 18 2 64 13 82 21 11 5 34 11 50 13
17 3 48 10 70 17 22 6 51 12 65 14 14 2 35 6 46 9 12 3 38 8 59 11 20 4 40 8
44 10 3 3 25 7 47 10 22 4 51 9 64 12 14 3 37 5 53 5 15 0 27 4 27 8 0 4 12 7
28 7 40 1 143 12 172 19 14 3 59 8 100 11 41 3 95 7 120 10 111 11 151 14 235
19 50 3 106 7 125 9 56 6 242 18 280 18 19 0 56 4 82 9 25 6 117 12 205 14
135 3 284 12 290 18 4 4 864 -3 918 -8z m-9472 -2658 c48 -1 87 1 87 5 0 3 41
6 90 6 50 0 90 -3 90 -8 0 -4 34 -6 76 -4 41 2 73 1 71 -4 -3 -4 59 -8 136 -8
78 -1 231 -3 340 -5 110 -2 201 -1 203 2 5 8 94 8 94 0 0 -3 33 -6 73 -5 88 1
105 -9 108 -62 4 -75 -1 -175 -9 -170 -8 5 -12 -36 -17 -179 -3 -107 -3 -107
-17 -99 -7 5 -8 3 -2 -7 12 -19 17 -62 6 -55 -4 3 -7 -18 -4 -46 2 -27 0 -48
-5 -45 -4 3 -8 -28 -8 -68 0 -40 4 -71 8 -68 4 2 7 -11 5 -31 -1 -20 -5 -36
-8 -36 -3 0 -6 -40 -6 -88 -1 -49 -7 -99 -13 -110 -9 -17 -9 -22 0 -22 7 0 9
-10 5 -27 -11 -45 -12 -212 -2 -205 5 3 7 -2 3 -11 -3 -10 -2 -17 4 -17 6 0 8
-4 5 -9 -3 -5 0 -11 8 -14 12 -5 17 -20 32 -95 3 -13 1 -21 -3 -19 -5 3 -7
-207 -6 -466 3 -506 9 -952 13 -952 4 0 10 -209 12 -437 1 -125 5 -225 8 -223
3 2 6 -34 5 -81 -1 -46 1 -84 4 -84 4 0 6 -80 5 -177 0 -98 2 -182 5 -188 3
-5 6 -46 6 -90 0 -44 4 -86 9 -94 7 -10 6 -12 -3 -6 -10 6 -11 3 -3 -11 5 -11
8 -43 6 -71 -1 -29 0 -53 4 -53 4 0 7 -102 7 -226 0 -124 2 -227 5 -229 3 -2
5 -45 5 -95 0 -50 2 -93 5 -95 3 -2 5 -48 5 -102 -1 -56 3 -104 9 -112 9 -12
8 -13 -3 -6 -11 6 -12 5 -5 -6 5 -8 10 -70 11 -139 4 -187 7 -250 13 -250 3 0
5 -68 5 -151 -1 -83 2 -152 5 -154 3 -2 5 -79 5 -172 -1 -105 3 -173 9 -182 9
-12 8 -13 -4 -6 -12 7 -13 6 -4 -6 6 -8 10 -63 9 -136 0 -67 2 -120 5 -118 3
2 5 -75 5 -172 0 -96 2 -176 5 -178 3 -2 5 -33 4 -69 0 -36 2 -66 6 -66 4 0 6
-32 5 -70 -1 -39 1 -73 5 -75 3 -2 5 -56 5 -119 -1 -64 1 -116 5 -116 7 0 10
-46 12 -217 2 -73 5 -133 9 -133 8 0 9 -11 12 -152 1 -71 4 -128 7 -128 5 0 5
-320 0 -330 -2 -3 -3 -32 -4 -65 -1 -39 -6 -60 -14 -61 -6 -1 -13 -3 -14 -4
-5 -4 -64 -11 -110 -12 -27 -1 -48 -5 -48 -8 0 -3 -39 -7 -87 -8 -177 -4 -223
-6 -223 -12 0 -3 -27 -5 -60 -5 -33 1 -58 -1 -55 -5 2 -3 -36 -6 -86 -5 -49 1
-89 -2 -89 -5 0 -8 -25 -9 -405 -13 -215 -2 -325 0 -334 7 -12 9 -13 8 -6 -4
8 -13 7 -13 -9 -1 -9 8 -30 15 -44 16 -15 1 -34 5 -41 10 -10 6 -12 4 -6 -6 7
-11 6 -12 -7 -2 -8 7 -18 10 -21 6 -4 -3 -7 -2 -7 4 0 5 -6 10 -12 11 -45 6
-58 9 -71 20 -7 7 -17 9 -20 5 -4 -3 -7 -1 -7 6 0 7 -4 10 -9 6 -5 -3 -15 0
-23 7 -7 7 -20 14 -28 16 -8 2 -22 10 -31 18 -9 8 -19 11 -24 7 -4 -5 -5 -2
-1 5 4 7 1 12 -9 12 -9 0 -13 5 -10 10 3 6 2 10 -4 10 -6 0 -22 11 -36 26 -14
14 -30 22 -37 18 -8 -5 -9 -2 -5 9 4 12 -3 24 -23 39 -17 12 -30 27 -30 34 0
6 -8 20 -17 31 -10 10 -13 12 -8 3 9 -13 8 -13 -7 -2 -9 8 -14 20 -11 28 3 8
-1 14 -8 14 -7 0 -10 3 -6 6 3 3 -3 14 -14 25 -11 11 -17 24 -14 29 4 6 -1 13
-9 16 -9 3 -14 10 -11 14 3 4 -2 11 -11 14 -8 3 -14 11 -13 18 3 27 -1 39 -13
32 -8 -5 -9 -2 -5 9 3 10 2 17 -4 17 -6 0 -7 5 -4 10 3 6 1 10 -5 10 -6 0 -9
4 -6 9 3 5 -3 19 -13 32 -10 13 -17 32 -15 42 1 9 -2 17 -6 17 -5 0 -7 9 -5
20 2 11 -1 20 -6 20 -6 0 -8 4 -4 9 3 5 1 12 -4 16 -6 3 -8 12 -5 19 3 8 0 17
-7 22 -8 5 -10 3 -4 -6 5 -8 4 -11 -3 -7 -5 4 -9 18 -7 32 1 14 -1 28 -6 30
-4 3 -6 14 -4 25 2 12 -2 20 -9 20 -8 0 -12 10 -10 27 1 16 -5 36 -14 47 -13
15 -13 17 -2 11 12 -6 12 -5 3 5 -6 7 -9 19 -6 28 4 9 2 13 -4 9 -8 -5 -10 6
-8 33 2 22 -1 40 -7 40 -6 0 -8 7 -4 15 3 8 2 15 -3 15 -5 0 -7 15 -6 33 2 18
-3 39 -12 50 -9 9 -13 17 -8 17 4 0 3 6 -2 13 -5 6 -9 36 -8 65 1 28 -2 52 -6
52 -4 0 -6 11 -4 25 1 14 -1 25 -5 25 -4 0 -6 16 -4 35 1 19 -1 37 -5 40 -5 2
-7 16 -6 30 2 14 0 25 -5 25 -5 0 -7 8 -5 18 1 9 0 22 -4 27 -3 6 -7 57 -8
115 -3 126 -6 172 -14 185 -3 6 -5 38 -4 73 1 34 -1 62 -5 62 -3 0 -5 35 -5
78 1 42 -3 83 -9 91 -9 12 -8 13 4 6 12 -7 13 -6 4 6 -6 8 -10 33 -9 56 1 23
-1 41 -4 39 -3 -2 -6 96 -5 217 0 122 -2 227 -5 232 -3 6 -6 28 -6 50 0 22 -3
45 -6 50 -3 6 -5 128 -5 273 1 144 -1 262 -4 262 -3 0 -5 254 -5 565 0 311 2
565 5 565 3 0 5 89 4 198 0 123 4 202 10 211 9 12 8 13 -3 6 -11 -6 -12 -5 -5
6 13 21 15 59 17 342 1 141 4 257 7 257 4 0 5 20 5 45 -1 25 1 45 5 45 3 0 6
24 5 53 -1 28 3 58 9 66 9 12 8 13 -4 6 -12 -7 -13 -6 -4 6 5 8 10 59 10 116
-1 57 2 103 5 103 3 0 5 29 4 65 -1 36 1 65 4 65 4 0 6 57 6 126 0 69 2 127 6
130 3 2 5 24 4 49 -1 25 1 48 5 50 3 2 6 29 5 59 0 30 2 53 6 50 4 -2 6 16 4
41 -1 25 2 48 6 51 5 3 9 32 9 66 0 55 2 60 19 55 14 -3 18 -1 14 9 -3 8 2 16
10 20 9 3 18 12 21 20 3 8 2 13 -2 10 -4 -2 -7 31 -7 75 0 43 2 79 5 79 3 0 4
47 3 105 -2 61 1 105 7 105 5 0 6 7 3 17 -4 9 -2 14 3 11 5 -4 8 28 8 75 -1
45 2 90 7 100 6 10 6 17 0 17 -5 0 -8 45 -6 108 1 59 3 107 4 107 1 0 4 35 5
78 2 42 8 83 13 90 5 6 8 53 7 102 -1 50 2 93 7 96 5 3 11 26 13 52 2 26 7 52
12 59 5 7 9 25 8 41 0 15 3 27 8 27 5 0 6 5 3 10 -3 6 -1 10 6 10 7 0 10 3 6
6 -7 7 15 34 24 29 3 -2 4 12 3 31 -2 22 1 34 9 34 16 0 49 55 40 64 -4 4 -1
11 7 16 8 5 15 13 15 17 1 19 31 53 47 53 10 0 17 6 16 13 -2 6 2 11 9 10 7
-2 10 4 6 13 -6 16 43 73 65 74 6 0 11 3 10 8 -2 4 2 8 7 10 6 2 17 10 26 18
9 8 19 11 23 7 4 -4 4 0 1 9 -5 13 -1 16 18 14 18 -2 24 1 20 10 -5 12 8 19
30 15 4 0 7 3 7 8 0 5 11 8 25 7 14 -2 22 1 18 7 -4 6 2 8 15 5 12 -4 22 -2
22 2 0 13 31 19 70 14 19 -3 74 -6 123 -7z"/>
</g>
</svg>
